<?xml version="1.0"?>
<svg xmlns="http://www.w3.org/2000/svg" xmlns:xlink="http://www.w3.org/1999/xlink" version="1.1" id="Layer_1" x="0px" y="0px" viewBox="0 0 512 512" style="enable-background:new 0 0 512 512;" xml:space="preserve" width="512px" height="512px" class=""><g><g>
	<g>
		<g>
			<path d="M0,0v512h512V0H0z M469.333,469.333H42.667V42.667h426.667V469.333z" data-original="#000000" class="active-path" data-old_color="#000000" fill="#FFFFFF"/>
			<path d="M185.752,228.418l48.915-48.915V384c0,11.782,9.551,21.333,21.333,21.333s21.333-9.551,21.333-21.333V179.503     l48.915,48.915c8.331,8.331,21.839,8.331,30.17,0c8.331-8.331,8.331-21.839,0-30.17l-85.333-85.333     c-0.008-0.008-0.016-0.014-0.023-0.021c-0.49-0.488-1.004-0.952-1.54-1.392c-0.248-0.204-0.509-0.38-0.764-0.571     c-0.302-0.226-0.598-0.461-0.913-0.671c-0.304-0.204-0.62-0.38-0.932-0.566c-0.285-0.17-0.564-0.349-0.857-0.506     c-0.318-0.17-0.646-0.315-0.971-0.468c-0.306-0.145-0.607-0.297-0.921-0.428c-0.315-0.13-0.637-0.236-0.957-0.35     c-0.337-0.121-0.669-0.25-1.013-0.354c-0.32-0.097-0.646-0.168-0.969-0.249c-0.351-0.089-0.698-0.187-1.055-0.258     c-0.375-0.074-0.753-0.118-1.13-0.173c-0.311-0.044-0.617-0.104-0.933-0.135c-1.4-0.138-2.811-0.138-4.211,0     c-0.315,0.031-0.621,0.09-0.933,0.135c-0.377,0.054-0.756,0.098-1.13,0.173c-0.358,0.071-0.704,0.169-1.055,0.258     c-0.324,0.081-0.649,0.152-0.969,0.249c-0.344,0.104-0.677,0.233-1.013,0.354c-0.32,0.115-0.642,0.22-0.957,0.35     c-0.314,0.13-0.615,0.283-0.921,0.428c-0.325,0.153-0.653,0.297-0.971,0.468c-0.293,0.157-0.572,0.336-0.857,0.506     c-0.312,0.186-0.628,0.363-0.932,0.566c-0.315,0.211-0.611,0.445-0.913,0.671c-0.255,0.191-0.516,0.368-0.764,0.571     c-0.535,0.439-1.05,0.903-1.54,1.392c-0.008,0.007-0.016,0.014-0.023,0.021l-85.333,85.333c-8.331,8.331-8.331,21.839,0,30.17     S177.42,236.749,185.752,228.418z" data-original="#000000" class="active-path" data-old_color="#000000" fill="#FFFFFF"/>
		</g>
	</g>
</g></g> </svg>
