<?xml version="1.0"?>
<svg xmlns="http://www.w3.org/2000/svg" id="Layer_1" enable-background="new 0 0 512 512" height="512px" viewBox="0 0 512 512" width="512px"><g><path d="m256 512c-68.38 0-132.667-26.629-181.02-74.98-48.351-48.353-74.98-112.64-74.98-181.02s26.629-132.667 74.98-181.02c48.353-48.351 112.64-74.98 181.02-74.98s132.667 26.629 181.02 74.98c48.351 48.353 74.98 112.64 74.98 181.02s-26.629 132.667-74.98 181.02c-48.353 48.351-112.64 74.98-181.02 74.98zm0-472c-119.103 0-216 96.897-216 216s96.897 216 216 216 216-96.897 216-216-96.897-216-216-216zm-52.879 189.461 25.759-30.602c-21.718-18.282-44.301-27.654-67.121-27.856-.253-.002-.503-.003-.757-.003-23.079 0-45.915 9.372-67.88 27.859l25.759 30.603c29.129-24.52 55.11-24.521 84.24-.001zm214.083-31.533c-45.189-34.803-91.813-34.687-134.831.335l25.254 31.02c28.488-23.191 54.755-23.088 85.169.335zm-41.494 132.51-31.42-24.755c-.318.404-32.458 40.377-88.29 40.377-55.147 0-87.024-38.806-88.354-40.458l.064.081-31.42 24.755c1.79 2.271 44.687 55.623 119.71 55.623s117.92-53.352 119.71-55.623z" data-original="#000000" class="active-path" data-old_color="#000000" fill="#FFFFFF"/></g> </svg>
