<?xml version="1.0"?>
<svg xmlns="http://www.w3.org/2000/svg" height="512px" viewBox="0 1 511 511.999" width="512px"><g><path d="m437.519531 74.980469c-48.351562-48.351563-112.640625-74.980469-181.019531-74.980469s-132.667969 26.628906-181.019531 74.980469c-48.351563 48.351562-74.980469 112.640625-74.980469 181.019531s26.628906 132.667969 74.980469 181.019531c48.351562 48.351563 112.640625 74.980469 181.019531 74.980469s132.664062-26.628906 181.015625-74.980469c48.351563-48.351562 74.980469-112.640625 74.980469-181.019531s-26.625-132.667969-74.976563-181.019531zm-181.019531 406.902343c-124.550781 0-225.882812-101.332031-225.882812-225.882812s101.332031-225.882812 225.882812-225.882812 225.882812 101.332031 225.882812 225.882812-101.332031 225.882812-225.882812 225.882812zm0 0" data-original="#000000" class="active-path" data-old_color="#000000" fill="#FFFEFE"/><path d="m367.265625 270.726562h-221.53125c-8.316406 0-15.058594 6.742188-15.058594 15.058594 0 69.378906 56.445313 125.824219 125.824219 125.824219s125.824219-56.445313 125.824219-125.824219c0-8.316406-6.742188-15.058594-15.058594-15.058594zm-110.765625 110.765626c-47.652344 0-87.28125-35.003907-94.523438-80.648438h189.046876c-7.242188 45.644531-46.871094 80.648438-94.523438 80.648438zm0 0" data-original="#000000" class="active-path" data-old_color="#000000" fill="#FFFEFE"/><path d="m144.878906 235.050781 25.746094-9.167969 25.75 9.167969c1.644531.582031 3.351562.871094 5.050781.871094 3.136719 0 6.242188-.980469 8.851563-2.875 4.019531-2.921875 6.339844-7.636719 6.203125-12.601563l-.765625-27.324218 16.675781-21.65625c3.03125-3.933594 3.925781-9.113282 2.390625-13.839844s-5.300781-8.390625-10.070312-9.792969l-26.21875-7.71875-15.441407-22.550781c-2.808593-4.097656-7.457031-6.550781-12.425781-6.550781s-9.617188 2.453125-12.425781 6.550781l-15.441407 22.550781-26.21875 7.71875c-4.765624 1.402344-8.535156 5.066407-10.070312 9.792969s-.640625 9.90625 2.390625 13.839844l16.675781 21.65625-.761718 27.324218c-.140626 4.964844 2.179687 9.679688 6.203124 12.601563 4.019532 2.921875 9.222657 3.667969 13.902344 2.003906zm19.703125-73.496093 6.042969-8.832032 6.046875 8.832032c1.960937 2.863281 4.847656 4.957031 8.175781 5.9375l10.265625 3.023437-6.527343 8.480469c-2.117188 2.746094-3.21875 6.140625-3.125 9.605468l.300781 10.699219-10.082031-3.589843c-1.636719-.582032-3.34375-.871094-5.050782-.871094-1.710937 0-3.417968.289062-5.050781.871094l-10.085937 3.589843.300781-10.699219c.097656-3.464843-1.007813-6.859374-3.121094-9.605468l-6.53125-8.480469 10.269531-3.023437c3.324219-.980469 6.210938-3.078126 8.171875-5.9375zm0 0" data-original="#000000" class="active-path" data-old_color="#000000" fill="#FFFEFE"/><path d="m396.457031 147.832031-26.21875-7.71875-15.441406-22.550781c-2.808594-4.097656-7.457031-6.550781-12.425781-6.550781s-9.617188 2.453125-12.421875 6.550781l-15.445313 22.550781-26.21875 7.71875c-4.765625 1.402344-8.535156 5.066407-10.070312 9.792969s-.640625 9.90625 2.390625 13.839844l16.675781 21.65625-.761719 27.324218c-.140625 4.964844 2.179688 9.679688 6.199219 12.601563 2.609375 1.894531 5.714844 2.875 8.851562 2.875 1.699219 0 3.40625-.289063 5.050782-.871094l25.75-9.167969 25.75 9.167969c4.679687 1.664063 9.878906.917969 13.898437-2.003906 4.023438-2.921875 6.339844-7.636719 6.203125-12.601563l-.761718-27.324218 16.675781-21.65625c3.03125-3.933594 3.925781-9.113282 2.390625-13.839844s-5.300782-8.390625-10.070313-9.792969zm-69.21875 51.46875.296875-10.699219c.097656-3.464843-1.003906-6.859374-3.121094-9.605468l-6.53125-8.480469 10.269532-3.023437c3.324218-.980469 6.214844-3.074219 8.171875-5.9375l6.046875-8.832032 6.046875 8.832032c1.960937 2.863281 4.847656 4.957031 8.175781 5.9375l10.265625 3.023437-6.53125 8.480469c-2.113281 2.746094-3.214844 6.140625-3.121094 9.605468l.300781 10.699219-10.082031-3.589843c-3.269531-1.164063-6.835937-1.164063-10.101562 0zm0 0" data-original="#000000" class="active-path" data-old_color="#000000" fill="#FFFEFE"/></g> </svg>
